<svg width="218" height="342" viewBox="0 0 218 342" fill="none" xmlns="http://www.w3.org/2000/svg">
<path d="M209.458 73.8733C204.658 74.1733 198.459 73.7733 193.859 74.2733C183.759 75.3733 179.959 81.3733 177.859 90.0733C174.659 103.173 168.258 111.873 154.558 113.573C140.858 115.273 133.858 106.373 130.458 94.2733C123.758 94.6733 112.458 96.0733 106.958 96.4733C101.458 96.9733 101.759 96.9733 97.3585 97.2733C111.559 93.5733 118.258 86.8733 120.158 72.3733C122.858 72.1733 125.458 72.1733 128.158 71.6733C126.758 62.2733 127.558 49.7733 125.658 40.8733C121.358 21.1733 112.858 10.5733 92.0585 11.8733C71.2585 13.2733 63.9585 25.2733 62.4585 45.1733C61.7585 54.1733 64.1585 66.7733 64.4585 75.5733C64.7585 84.4733 65.6584 91.2733 65.7584 99.6733C61.2584 100.473 54.6585 99.3733 50.3585 100.073C21.7585 105.273 5.15841 117.773 2.25841 148.573C-0.141591 172.973 14.3584 188.373 38.1584 193.673C38.5584 194.873 38.2584 195.673 38.7584 196.673C42.3584 203.973 47.3585 207.173 55.5585 207.373C57.2585 207.373 58.7584 207.673 59.7584 205.173C64 223.173 67.6724 228.173 69.9585 240.773C74.2585 264.473 57.4585 304.373 44.9585 328.473L97.6584 339.373C98.5584 331.373 96.5585 325.773 90.4585 320.473C104.758 298.873 119.558 269.373 126.058 244.373C134.158 270.373 126.158 274.373 106.658 292.073C109.158 296.373 127.658 325.773 130.058 330.473C136.358 324.073 138.559 317.373 136.859 308.173C136.759 307.473 135.958 306.173 135.258 304.173C200.358 286.873 158.558 224.873 145.958 193.973C133.358 163.073 134.858 155.873 125.558 128.473C135.658 135.573 144.758 139.073 156.258 137.773C182.858 134.673 199.158 115.673 202.058 89.7733C199.358 89.6733 196.758 89.7733 194.058 89.7733C203.258 88.1733 207.958 83.4733 209.458 73.8733ZM27.0585 148.673C27.4585 133.573 37.6584 127.773 50.7584 124.173C51.3584 139.973 51.3585 155.773 52.4585 171.473C38.4585 170.373 26.6585 163.873 27.0585 148.673Z" fill="white" stroke="#131112" stroke-width="4" stroke-miterlimit="10" stroke-linecap="round" stroke-linejoin="round"/>
<path d="M90.2583 320.773C107.258 294.973 127.758 252.373 126.858 221.173" stroke="#131112" stroke-width="4" stroke-miterlimit="10" stroke-linecap="round" stroke-linejoin="round"/>
<path d="M110.995 55.2747C111.098 58.6932 109.561 61.4902 107.307 61.6456C105.054 61.9564 103.21 59.6256 103.005 56.0516C102.902 52.6331 104.439 49.8361 106.693 49.6807C109.049 49.5253 110.893 51.8561 110.995 55.2747Z" fill="#131112"/>
<path d="M54.8584 187.273C56.6584 195.473 57.4999 198.173 59.9999 206.173" stroke="#131112" stroke-width="4" stroke-miterlimit="10" stroke-linecap="round" stroke-linejoin="round"/>
<path d="M92.3584 193.473C109.158 191.873 125.458 188.373 142.058 185.373" stroke="#131112" stroke-width="4" stroke-miterlimit="10" stroke-linecap="round" stroke-linejoin="round"/>
<path d="M37.9585 193.873L37.6584 183.673" stroke="#131112" stroke-width="4" stroke-miterlimit="10" stroke-linecap="round" stroke-linejoin="round"/>
<path d="M87.8247 7.1785C70.2217 9.02865 57.4948 24.7451 59.3449 42.3481C84.2038 39.7414 98.1412 38.28 123 35.6733C121.15 18.0703 105.428 5.32835 87.8247 7.1785Z" fill="#ED6A5A"/>
<path d="M59.3449 42.3481L60.9547 57.6637C69.5076 56.7648 75.7584 49.2704 75.2573 40.6757C69.363 32.7753 65.8944 32.7858 59.3449 42.3481Z" fill="#ED6A5A"/>
<path d="M115 21.1733L123 35.6733C128.86 35.0574 132.956 27.4878 132.23 18.6151L115 21.1733Z" fill="#ED6A5A"/>
<path d="M106.385 11.5524L108.057 27.4648C116.61 26.5658 122.929 18.7626 122.297 9.87996L106.385 11.5524Z" fill="#ED6A5A"/>
<path d="M184.006 12.5516L183.712 57.869L197.052 47.8157L213.724 46.7659L184.006 12.5516Z" fill="black" stroke="white" stroke-width="4"/>
</svg>
